# xmcd CD database file
#
# Track frame offsets:
#	150
#	12531
#	23945
#	35426
#	48319
#	61219
#	75908
#	89499
#	102282
#	115387
#	126222
#	139232
#	153706
#	168325
#	181714
#	197148
#	210071
#	223232
#
# Disc length: 3125 seconds
#
# Revision: 0
# Processed by: cddbd v1.5.2PL0 Copyright (c) Steve Scherf et al.
# Submitted via: CDex 1.51
#
DISCID=f50c3312
DTITLE=Django Reinhardt - Kind Of Reinhardt [CD7] - Django and Stephane
DYEAR=2009
DGENRE=Jazz
TTITLE0=Rose Room (Williams/Hickman)
TTITLE1=I'll See You In my Dreams (Jones/Kahn)
TTITLE2=Lover Come Back To Me (Romberg/Hammerstein)
TTITLE3=It Was So Beautiful (Barris/Freed)
TTITLE4=Smoke Rings (Gifford/Washington)
TTITLE5=Clouds (Donaldson/Kahn)
TTITLE6=Moonglow (Hudson/De Lange/Mills)
TTITLE7=Christmas Swing (Reinhardt)
TTITLE8=Runnin' Wild (Gibbs)
TTITLE9=Some Of These Days (Brooks)
TTITLE10=Blue Drag (Reinhardt)
TTITLE11=When Day Is Done (De Sylva/Katsher)
TTITLE12=My Melancholy Baby (Burnett/Norton/Watson)
TTITLE13=I Got Rhythm (Romberg/Hammerstein)
TTITLE14=Cicago (Fisher)
TTITLE15=Charleston (Mack/Johnson)
TTITLE16=Improvisation (Reinhardt)
TTITLE17=I Saw Stars (Sigler/Goodhart/Hoffman)
EXTD=YEAR: 2009
EXTT0=
EXTT1=
EXTT2=
EXTT3=
EXTT4=
EXTT5=
EXTT6=
EXTT7=
EXTT8=
EXTT9=
EXTT10=
EXTT11=
EXTT12=
EXTT13=
EXTT14=
EXTT15=
EXTT16=
EXTT17=
PLAYORDER=
